#Comment line ignore any data following # character 
#Hierarchical Translation and Rotation (.htr) file 
[Header]	
#Header keywords are followed by a single value 
FileType HTR		#Single word string
DataType HTRS		#Translation followed by rotation and scale data
FileVersion 1		#integer
NumSegments 64		#integer
NumFrames 3		#integer
DataFrameRate 30		#integer, data frame rate in this file
EulerRotationOrder ZYX
CalibrationUnits mm
RotationUnits Degrees
GlobalAxisofGravity Y
BoneLengthAxis Y
ScaleFactor 1.00
[SegmentNames&Hierarchy]
#CHILD	PARENT
Pinger_Root GLOBAL
Pelvis Pinger_Root
L_Hip Pelvis
R_Hip Pelvis
Rear_Leg01 Pelvis
Spine1 Pelvis
L_Leg01 L_Hip
L_Leg02 L_Leg01
L_Leg03 L_Leg02
L_Foot L_Leg03
L_Toe1_01 L_Foot
L_Toe2_01 L_Foot
L_Toe3_01 L_Foot
planeAlignerLeft L_Foot
L_Toe1_02 L_Toe1_01
L_Toe1_03 L_Toe1_02
L_Toe2_02 L_Toe2_01
L_Toe2_03 L_Toe2_02
L_Toe3_02 L_Toe3_01
L_Toe3_03 L_Toe3_02
planeLockWeightLeft planeAlignerLeft
R_Leg01 R_Hip
R_Leg02 R_Leg01
R_Leg03 R_Leg02
R_Foot R_Leg03
planeAlignerRight R_Foot
R_Toe1_01 R_Foot
R_Toe2_01 R_Foot
R_Toe3_01 R_Foot
planeLockWeightRight planeAlignerRight
R_Toe1_02 R_Toe1_01
R_Toe1_03 R_Toe1_02
R_Toe2_02 R_Toe2_01
R_Toe2_03 R_Toe2_02
R_Toe3_02 R_Toe3_01
R_Toe3_03 R_Toe3_02
Rear_Leg02 Rear_Leg01
Rear_Leg03 Rear_Leg02
Rear_Leg04 Rear_Leg03
Rear_Foot Rear_Leg04
planeAlignerCenter Rear_Foot
Rear_Toe1_01 Rear_Foot
Rear_Toe2_01 Rear_Foot
Rear_Toe3_01 Rear_Foot
planeLockWeightCenter planeAlignerCenter
Rear_Toe1_02 Rear_Toe1_01
Rear_Toe1_03 Rear_Toe1_02
Rear_Toe2_02 Rear_Toe2_01
Rear_Toe2_03 Rear_Toe2_02
Rear_Toe3_02 Rear_Toe3_01
Rear_Toe3_03 Rear_Toe3_02
Back_Bone Spine1
Head Spine1
Motor_Bone Back_Bone
Ping_Mechanism Back_Bone
BN_LookIK Head
bottomMouth Head
L_Mouth01 Head
L_mouthFront Head
mouthGun Head
R_Mouth01 Head
R_mouthFront Head
TopMouth Head
weapon_bone Head
[BasePosition]
#SegmentName Tx, Ty, Tz, Rx, Ry, Rz, BoneLength
Pinger_Root 0.000000 0.000000 0.000000 -90.000000 0.000000 0.000000 10.000000 
Pelvis 0.000000 0.000000 0.000000 0.000000 0.000000 0.000000 10.000000 
L_Hip 0.000000 0.000000 0.000000 0.000000 0.000000 0.000000 10.000000 
R_Hip 0.000000 0.000000 0.000000 0.000000 0.000000 0.000000 10.000000 
Rear_Leg01 0.000000 0.000000 0.000000 0.000000 0.000000 0.000000 10.000000 
Spine1 0.000000 0.000000 0.000000 0.000000 0.000000 0.000000 10.000000 
L_Leg01 0.000000 0.000000 0.000000 0.000000 0.000000 0.000000 10.000000 
L_Leg02 0.000000 0.000000 0.000000 0.000000 0.000000 0.000000 10.000000 
L_Leg03 0.000000 0.000000 0.000000 0.000000 0.000000 0.000000 10.000000 
L_Foot 0.000000 0.000000 0.000000 0.000000 0.000000 0.000000 10.000000 
L_Toe1_01 0.000000 0.000000 0.000000 0.000000 0.000000 0.000000 10.000000 
L_Toe2_01 0.000000 0.000000 0.000000 0.000000 0.000000 0.000000 10.000000 
L_Toe3_01 0.000000 0.000000 0.000000 0.000000 0.000000 0.000000 10.000000 
planeAlignerLeft 0.000000 0.000000 0.000000 0.000000 0.000000 0.000000 10.000000 
L_Toe1_02 0.000000 0.000000 0.000000 0.000000 0.000000 0.000000 10.000000 
L_Toe1_03 0.000000 0.000000 0.000000 0.000000 0.000000 0.000000 10.000000 
L_Toe2_02 0.000000 0.000000 0.000000 0.000000 0.000000 0.000000 10.000000 
L_Toe2_03 0.000000 0.000000 0.000000 0.000000 0.000000 0.000000 10.000000 
L_Toe3_02 0.000000 0.000000 0.000000 0.000000 0.000000 0.000000 10.000000 
L_Toe3_03 0.000000 0.000000 0.000000 0.000000 0.000000 0.000000 10.000000 
planeLockWeightLeft 0.000000 0.000000 0.000000 0.000000 0.000000 0.000000 10.000000 
R_Leg01 0.000000 0.000000 0.000000 0.000000 0.000000 0.000000 10.000000 
R_Leg02 0.000000 0.000000 0.000000 0.000000 0.000000 0.000000 10.000000 
R_Leg03 0.000000 0.000000 0.000000 0.000000 0.000000 0.000000 10.000000 
R_Foot 0.000000 0.000000 0.000000 0.000000 0.000000 0.000000 10.000000 
planeAlignerRight 0.000000 0.000000 0.000000 0.000000 0.000000 0.000000 10.000000 
R_Toe1_01 0.000000 0.000000 0.000000 0.000000 0.000000 0.000000 10.000000 
R_Toe2_01 0.000000 0.000000 0.000000 0.000000 0.000000 0.000000 10.000000 
R_Toe3_01 0.000000 0.000000 0.000000 0.000000 0.000000 0.000000 10.000000 
planeLockWeightRight 0.000000 0.000000 0.000000 0.000000 0.000000 0.000000 10.000000 
R_Toe1_02 0.000000 0.000000 0.000000 0.000000 0.000000 0.000000 10.000000 
R_Toe1_03 0.000000 0.000000 0.000000 0.000000 0.000000 0.000000 10.000000 
R_Toe2_02 0.000000 0.000000 0.000000 0.000000 0.000000 0.000000 10.000000 
R_Toe2_03 0.000000 0.000000 0.000000 0.000000 0.000000 0.000000 10.000000 
R_Toe3_02 0.000000 0.000000 0.000000 0.000000 0.000000 0.000000 10.000000 
R_Toe3_03 0.000000 0.000000 0.000000 0.000000 0.000000 0.000000 10.000000 
Rear_Leg02 0.000000 0.000000 0.000000 0.000000 0.000000 0.000000 10.000000 
Rear_Leg03 0.000000 0.000000 0.000000 0.000000 0.000000 0.000000 10.000000 
Rear_Leg04 0.000000 0.000000 0.000000 0.000000 0.000000 0.000000 10.000000 
Rear_Foot 0.000000 0.000000 0.000000 0.000000 0.000000 0.000000 10.000000 
planeAlignerCenter 0.000000 0.000000 0.000000 0.000000 0.000000 0.000000 10.000000 
Rear_Toe1_01 0.000000 0.000000 0.000000 0.000000 0.000000 0.000000 10.000000 
Rear_Toe2_01 0.000000 0.000000 0.000000 0.000000 0.000000 0.000000 10.000000 
Rear_Toe3_01 0.000000 0.000000 0.000000 0.000000 0.000000 0.000000 10.000000 
planeLockWeightCenter 0.000000 0.000000 0.000000 0.000000 0.000000 0.000000 10.000000 
Rear_Toe1_02 0.000000 0.000000 0.000000 0.000000 0.000000 0.000000 10.000000 
Rear_Toe1_03 0.000000 0.000000 0.000000 0.000000 0.000000 0.000000 10.000000 
Rear_Toe2_02 0.000000 0.000000 0.000000 0.000000 0.000000 0.000000 10.000000 
Rear_Toe2_03 0.000000 0.000000 0.000000 0.000000 0.000000 0.000000 10.000000 
Rear_Toe3_02 0.000000 0.000000 0.000000 0.000000 0.000000 0.000000 10.000000 
Rear_Toe3_03 0.000000 0.000000 0.000000 0.000000 0.000000 0.000000 10.000000 
Back_Bone 0.000000 0.000000 0.000000 0.000000 0.000000 0.000000 10.000000 
Head 0.000000 0.000000 0.000000 0.000000 0.000000 0.000000 10.000000 
Motor_Bone 0.000000 0.000000 0.000000 0.000000 0.000000 0.000000 10.000000 
Ping_Mechanism 0.000000 0.000000 0.000000 0.000000 0.000000 0.000000 10.000000 
BN_LookIK 0.000000 0.000000 0.000000 0.000000 0.000000 0.000000 10.000000 
bottomMouth 0.000000 0.000000 0.000000 0.000000 0.000000 0.000000 10.000000 
L_Mouth01 0.000000 0.000000 0.000000 0.000000 0.000000 0.000000 10.000000 
L_mouthFront 0.000000 0.000000 0.000000 0.000000 0.000000 0.000000 10.000000 
mouthGun 0.000000 0.000000 0.000000 0.000000 0.000000 0.000000 10.000000 
R_Mouth01 0.000000 0.000000 0.000000 0.000000 0.000000 0.000000 10.000000 
R_mouthFront 0.000000 0.000000 0.000000 0.000000 0.000000 0.000000 10.000000 
TopMouth 0.000000 0.000000 0.000000 0.000000 0.000000 0.000000 10.000000 
weapon_bone 0.000000 0.000000 0.000000 0.000000 0.000000 0.000000 10.000000 
#Beginning of Data. Separated by tabs
#Fr	Tx	Ty	Tz	Rx	Ry	Rz	SF
[Pinger_Root]
52 0.000000 6611.108887 0.000000 -0.000075 -0.000000 -0.000020 6611.108887
53 0.000000 6740.737793 0.000000 -0.000075 -0.000000 -0.000020 6740.737793
54 0.000000 6870.368164 0.000000 -0.000075 -0.000000 -0.000020 6870.368164
[Pelvis]
52 410.395233 1350.213745 4976.964355 -104.172905 -72.426292 95.755127 5173.168945
53 347.459564 1359.917847 4997.717773 -101.847618 -73.029716 92.698952 5191.077637
54 272.805450 1365.699707 5025.911133 -101.338394 -75.216423 92.019516 5215.298828
[L_Hip]
52 5.766392 125.831482 872.656799 -178.250168 -81.786369 87.376007 881.701050
53 5.766392 125.831482 872.656799 -178.250168 -81.786369 87.376007 881.701050
54 5.766392 125.831482 872.656799 -178.250168 -81.786369 87.376007 881.701050
[R_Hip]
52 5.765438 125.836372 -872.654907 -1.748770 81.786041 87.376961 881.699829
53 5.765438 125.836372 -872.654907 -1.748770 81.786041 87.376961 881.699829
54 5.765438 125.836372 -872.654907 -1.748770 81.786041 87.376961 881.699829
[Rear_Leg01]
52 -192.298416 -925.602966 -0.001907 177.955780 -2.594388 -136.834763 945.367432
53 -192.298416 -925.602966 -0.001907 175.089340 1.014182 -138.889465 945.367432
54 -192.298416 -925.602966 -0.001907 172.999451 3.876554 -140.778290 945.367432
[Spine1]
52 290.604584 5.007505 0.000477 9.508551 -0.072115 11.404042 290.647736
53 290.604584 5.007505 0.000477 10.122444 -1.262611 12.032948 290.647736
54 290.604584 5.007505 0.000477 10.280622 -1.948490 14.317059 290.647736
[L_Leg01]
52 761.932007 -0.002384 -0.069261 56.196945 -24.270824 -56.202469 761.932068
53 761.932007 -0.002384 -0.069261 56.979168 -23.991999 -57.947983 761.932068
54 761.932007 -0.002384 -0.069261 58.706589 -22.004297 -60.614670 761.932068
[L_Leg02]
52 1441.140503 -0.000954 -0.000715 -1.230936 0.275156 -96.442413 1441.140503
53 1441.140503 -0.000954 -0.000715 -1.270051 0.324675 -98.769592 1441.140503
54 1441.140503 -0.000954 -0.000715 -1.340833 0.380342 -99.562233 1441.140503
[L_Leg03]
52 1686.963989 -0.000715 -0.000954 0.005207 -0.004389 108.473984 1686.963989
53 1686.963989 -0.000715 -0.000954 0.012180 -0.005358 107.015984 1686.963989
54 1686.963989 -0.000715 -0.000954 0.019175 -0.006149 105.557953 1686.963989
[L_Foot]
52 3041.570068 -30.715107 11.297464 -19.712954 13.980503 52.214577 3041.746094
53 3041.570068 -30.715107 11.297464 -19.418333 15.181742 56.189663 3041.746094
54 3041.570068 -30.715107 11.297464 -18.693033 15.876005 59.536354 3041.746094
[L_Toe1_01]
52 -188.216690 -224.732346 -21.137953 89.386978 -1.968458 -163.197678 293.899567
53 -188.216690 -224.732346 -21.137953 89.500725 -2.596826 -164.379913 293.899567
54 -188.216690 -224.732346 -21.137953 89.639893 -3.148678 -165.159546 293.899567
[L_Toe2_01]
52 200.746536 -219.926590 148.838394 -78.043335 -14.332776 -42.847534 332.896027
53 200.746536 -219.926590 148.838394 -77.847862 -14.397766 -43.424782 332.896027
54 200.746536 -219.926590 148.838394 -77.651649 -14.460842 -44.002407 332.896027
[L_Toe3_01]
52 188.832520 -219.859131 -191.078659 -105.610802 17.743088 -44.802052 347.140900
53 188.832520 -219.859131 -191.078659 -105.394188 16.443609 -44.861450 347.140900
54 188.832520 -219.859131 -191.078659 -105.177551 15.144343 -44.925549 347.140900
[planeAlignerLeft]
52 -69.371254 -602.908569 1.103275 0.000000 -90.000000 -90.001900 606.887390
53 -41.763939 -604.529846 13.716905 0.000000 -90.000000 -90.001900 606.125977
54 -20.532631 -605.776978 23.419842 0.000000 -90.000000 -90.001900 606.577148
[L_Toe1_02]
52 413.761139 0.000477 0.000000 0.001398 -24.206816 0.001398 413.761139
53 413.761139 0.000477 0.000000 0.001404 -23.455330 0.001404 413.761139
54 413.761139 0.000477 0.000000 0.001410 -22.703873 0.001410 413.761139
[L_Toe1_03]
52 464.317322 0.000358 -0.000089 0.007637 72.320236 0.007637 464.317322
53 464.317322 0.000358 -0.000089 0.010145 76.713707 0.010145 464.317322
54 464.317322 0.000358 -0.000089 0.013269 79.851097 0.013269 464.317322
[L_Toe2_02]
52 342.235809 -0.000477 0.000238 0.003520 -79.451126 0.003520 342.235809
53 342.235809 -0.000477 0.000238 0.002351 -78.764725 0.002351 342.235809
54 342.235809 -0.000477 0.000238 0.001180 -78.078308 0.001180 342.235809
[L_Toe2_03]
52 420.210846 -0.000715 0.000000 -179.998795 67.895439 -179.995224 420.210846
53 420.210846 -0.000715 0.000000 -179.998047 72.203903 -179.994522 420.210846
54 420.210846 -0.000715 0.000000 -179.997131 75.720627 -179.993607 420.210846
[L_Toe3_02]
52 329.270111 0.000954 0.000000 0.001176 -82.998398 0.001176 329.270111
53 329.270111 0.000954 0.000000 0.001176 -82.625839 0.001176 329.270111
54 329.270111 0.000954 0.000000 0.001176 -82.253265 0.001176 329.270111
[L_Toe3_03]
52 439.137451 -0.001907 0.000954 179.995850 66.526848 -179.998795 439.137451
53 439.137451 -0.001907 0.000954 -179.998581 69.280426 -179.995041 439.137451
54 439.137451 -0.001907 0.000954 -179.998184 71.574715 -179.994644 439.137451
[planeLockWeightLeft]
52 999.999573 0.097823 0.076209 -0.011826 -0.004376 0.005620 999.999573
53 999.999573 0.097767 0.076186 -0.011826 -0.004376 0.005620 999.999573
54 999.999512 0.097712 0.076164 -0.011826 -0.004376 0.005620 999.999512
[R_Leg01]
52 761.455627 -0.001907 -0.000358 99.961060 -26.173874 81.711716 761.455688
53 761.455627 -0.001907 -0.000358 97.013573 -23.443722 81.434509 761.455688
54 761.455627 -0.001907 -0.000358 94.923172 -19.518646 81.145363 761.455688
[R_Leg02]
52 1441.140625 0.000000 -0.000238 0.182680 -0.044178 -105.761620 1441.140625
53 1441.140625 0.000000 -0.000238 0.186557 -0.029979 -103.252541 1441.140625
54 1441.140625 0.000000 -0.000238 0.185193 -0.027523 -100.482651 1441.140625
[R_Leg03]
52 1686.963989 0.000954 0.001431 -0.038918 0.010194 99.320770 1686.963989
53 1686.963989 0.000954 0.001431 -0.046009 0.010251 98.056038 1686.963989
54 1686.963989 0.000954 0.001431 -0.056525 0.013269 95.602905 1686.963989
[R_Foot]
52 3041.560059 -30.531288 -11.204481 8.919768 -17.520315 83.040359 3041.734131
53 3041.560059 -30.531288 -11.204481 9.410778 -19.511635 83.793800 3041.734131
54 3041.560059 -30.531288 -11.204481 10.080563 -21.055597 84.984016 3041.734131
[planeAlignerRight]
52 -0.612183 -699.211853 -0.325508 0.000000 -89.960434 -90.005180 699.212219
53 -0.612793 -687.336548 -0.320053 0.000000 -89.960434 -90.005180 687.336914
54 -0.614014 -682.902771 -0.318337 0.000000 -89.960434 -90.005180 682.903076
[R_Toe1_01]
52 -188.383347 -224.864899 21.052242 90.750786 1.965531 -158.691895 294.101532
53 -188.383347 -224.864899 21.052242 90.712257 1.979251 -159.649109 294.101532
54 -188.383347 -224.864899 21.052242 90.705360 1.981578 -160.004471 294.101532
[R_Toe2_01]
52 200.637817 -220.002121 -148.787384 -103.376984 11.182644 -50.897095 332.857574
53 200.637817 -220.002121 -148.787384 -103.218246 11.380276 -50.025753 332.857574
54 200.637817 -220.002121 -148.787384 -103.126266 11.464717 -49.695419 332.857574
[R_Toe3_01]
52 188.606735 -220.092957 191.126343 -72.573235 -13.784245 -52.789257 347.192566
53 188.606735 -220.092957 191.126343 -72.774597 -14.047026 -51.904140 347.192566
54 188.606735 -220.092957 191.126343 -72.875298 -14.152113 -51.580666 347.192566
[planeLockWeightRight]
52 999.999390 0.000000 0.076276 -0.011823 -0.004379 -0.000027 999.999390
53 999.999329 0.000000 0.076285 -0.011823 -0.004379 -0.000027 999.999329
54 999.999329 0.000000 0.076294 -0.011823 -0.004379 -0.000027 999.999329
[R_Toe1_02]
52 413.762085 0.000477 -0.000119 0.001402 -23.668430 0.001402 413.762085
53 413.762085 0.000477 -0.000119 0.001404 -23.360016 0.001404 413.762085
54 413.762085 0.000477 -0.000119 0.001404 -23.375162 0.001404 413.762085
[R_Toe1_03]
52 464.317810 0.000000 0.001088 0.009455 75.739426 0.009455 464.317810
53 464.317810 0.000000 0.001088 0.010193 76.776863 0.010193 464.317810
54 464.317810 0.000000 0.001088 0.010493 77.155922 0.010493 464.317810
[R_Toe2_02]
52 342.234741 -0.000954 0.000238 -0.002343 -75.078911 -0.002343 342.234741
53 342.234741 -0.000954 0.000238 -0.002342 -75.344490 -0.002342 342.234741
54 342.234741 -0.000954 0.000238 -0.002342 -75.610016 -0.002342 342.234741
[R_Toe2_03]
52 420.210846 0.000715 -0.000268 -179.978806 86.612976 -179.982300 420.210846
53 420.210846 0.000715 -0.000268 -179.984055 85.362106 -179.987549 420.210846
54 420.210846 0.000715 -0.000268 -179.985336 84.898735 -179.988831 420.210846
[R_Toe3_02]
52 329.270355 -0.000477 -0.000954 0.001179 -78.928421 0.001179 329.270355
53 329.270355 -0.000477 -0.000954 0.001179 -79.357582 0.001179 329.270355
54 329.270355 -0.000477 -0.000954 0.001179 -79.344765 0.001179 329.270355
[R_Toe3_03]
52 439.137939 0.000238 0.001431 -179.990997 83.870842 -179.987488 439.137939
53 439.137939 0.000238 0.001431 -179.992706 82.705933 -179.989212 439.137939
54 439.137939 0.000238 0.001431 -179.993225 82.278389 -179.989716 439.137939
[Rear_Leg02]
52 1162.777710 -0.029802 0.005960 20.336855 -26.545719 -92.049309 1162.777710
53 1162.777710 -0.029802 0.005960 24.307577 -21.791651 -98.815193 1162.777710
54 1162.777710 -0.029802 0.005960 27.066687 -16.939356 -105.344086 1162.777710
[Rear_Leg03]
52 607.192505 -0.013351 -0.073195 0.010290 -0.005502 72.626862 607.192505
53 607.192505 -0.013351 -0.073195 0.010146 -0.005764 75.557861 607.192505
54 607.192505 -0.013351 -0.073195 0.010031 -0.005961 77.802681 607.192505
[Rear_Leg04]
52 995.874512 -0.020504 -0.011921 -0.041625 -0.015373 76.820915 995.874573
53 995.874512 -0.020504 -0.011921 -0.045952 -0.016025 84.965683 995.874573
54 995.874512 -0.020504 -0.011921 -0.043500 -0.016507 92.595802 995.874573
[Rear_Foot]
52 3096.176270 -0.067472 -0.041425 -94.989082 56.974758 53.689899 3096.176270
53 3096.176270 -0.067472 -0.041425 -88.372391 58.210930 56.499107 3096.176270
54 3096.176270 -0.067472 -0.041425 -79.703331 58.906803 61.190571 3096.176270
[planeAlignerCenter]
52 -8.610676 195.386185 -764.716980 0.000009 0.000003 -179.999985 789.330078
53 -4.935453 219.931671 -763.252014 0.000009 0.000003 -179.999985 794.322327
54 -1.567943 238.277222 -762.200867 0.000009 0.000003 -179.999985 798.579163
[Rear_Toe1_01]
52 0.653352 83.966492 -371.173737 0.102337 47.637932 90.044151 380.553192
53 0.653352 83.966492 -371.173737 0.098013 42.143379 90.043579 380.553192
54 0.653352 83.966492 -371.173737 0.097924 39.690971 90.037758 380.553192
[Rear_Toe2_01]
52 178.200760 -294.826019 -362.060547 6.209680 63.759953 -64.005356 499.765686
53 178.200760 -294.826019 -362.060547 19.264362 77.993904 -51.258034 499.765686
54 178.200760 -294.826019 -362.060547 56.668011 84.538223 -14.024756 499.765686
[Rear_Toe3_01]
52 -153.359680 -308.780914 -362.060852 -7.170670 63.678455 -119.225571 499.952881
53 -153.359680 -308.780914 -362.060852 -21.648169 77.699318 -133.344421 499.952881
54 -153.359680 -308.780914 -362.060852 -58.934910 83.926071 -170.432312 499.952881
[planeLockWeightCenter]
52 0.000000 0.000153 0.076294 -0.011814 -0.004373 -0.000015 0.076294
53 0.000000 0.000203 0.076294 -0.011814 -0.004373 -0.000015 0.076294
54 0.000000 0.000254 0.076294 -0.011814 -0.004373 -0.000015 0.076294
[Rear_Toe1_02]
52 379.707825 0.194073 0.000477 -0.000767 -33.624729 0.000838 379.707855
53 379.707825 0.194073 0.000477 -0.000767 -33.624729 0.000838 379.707855
54 379.707825 0.194073 0.000477 -0.000767 -33.624729 0.000838 379.707855
[Rear_Toe1_03]
52 500.129700 0.165701 0.000119 -0.008467 83.551804 -0.011970 500.129761
53 500.129700 0.165701 0.000119 -179.975571 87.096802 -179.979065 500.129761
54 500.129700 0.165701 0.000119 -179.986511 84.390457 -179.990005 500.129761
[Rear_Toe2_02]
52 340.494507 0.000238 -0.000954 179.998825 -87.865402 179.998825 340.494507
53 340.494507 0.000238 -0.000954 179.998825 -87.139595 179.998825 340.494507
54 340.494507 0.000238 -0.000954 179.998825 -87.242035 179.998825 340.494507
[Rear_Toe2_03]
52 433.103577 0.000000 0.000238 -179.996094 57.871887 -179.999741 433.103546
53 433.103577 0.000000 0.000238 -179.996292 54.413292 -179.999954 433.103546
54 433.103577 0.000000 0.000238 -179.996216 55.634392 -179.999878 433.103546
[Rear_Toe3_02]
52 340.494141 -0.000358 -0.000477 -179.997681 -87.927170 -179.997681 340.494171
53 340.494141 -0.000358 -0.000477 -179.994171 -87.187424 -179.994171 340.494171
54 340.494141 -0.000358 -0.000477 -179.994171 -87.286606 -179.994171 340.494171
[Rear_Toe3_03]
52 433.103577 0.001431 -0.000238 179.992081 58.188602 179.999344 433.103546
53 433.103577 0.001431 -0.000238 179.992462 54.680363 179.999802 433.103546
54 433.103577 0.001431 -0.000238 179.992340 55.874977 179.999664 433.103546
[Back_Bone]
52 1312.175781 -701.934692 0.000954 -2.394412 2.513105 -83.853050 1488.125488
53 1312.175781 -701.934692 0.000954 -2.649597 2.005941 -83.663635 1488.125488
54 1312.175781 -701.934692 0.000954 -2.764033 1.717784 -83.953346 1488.125488
[Head]
52 1406.159424 809.709290 0.001431 -0.967273 2.312331 3.485072 1622.625488
53 1406.159424 809.709290 0.001431 -1.154489 2.362197 3.291175 1622.625488
54 1406.159424 809.709290 0.001431 -1.341878 2.411429 3.097108 1622.625488
[Motor_Bone]
52 1158.364380 -417.834747 0.000477 -0.003510 -1.410939 -107.395241 1231.419434
53 1158.364380 -417.834747 0.000477 5.387031 -2.893384 -108.880913 1231.419434
54 1158.364380 -417.834747 0.000477 1.328373 -1.434140 -107.312431 1231.419434
[Ping_Mechanism]
52 1295.223633 -469.900085 -6.637644 0.000103 -0.000053 82.120995 1377.844116
53 1292.306274 -470.701874 -0.905510 0.000103 -0.000053 82.120995 1375.360596
54 1282.667358 -467.095398 -1.042087 0.000103 -0.000053 82.120995 1365.069580
[BN_LookIK]
52 193.241119 1380.371704 -0.002861 0.000000 89.965736 -31.038179 1393.832153
53 193.241119 1380.371704 -0.002861 0.000000 89.965736 -31.038179 1393.832153
54 193.241119 1380.371704 -0.002861 0.000000 89.965736 -31.038179 1393.832153
[bottomMouth]
52 -435.092926 615.759399 -0.000954 -0.000022 0.000016 73.527184 753.966492
53 -435.092926 615.759399 -0.000954 -0.000022 0.000016 73.527184 753.966492
54 -435.092926 615.759399 -0.000954 -0.000022 0.000016 73.527184 753.966492
[L_Mouth01]
52 554.440979 7.658243 838.222046 150.204178 23.759130 109.605339 1005.027161
53 554.440979 7.658243 838.222046 150.204178 23.759130 109.605339 1005.027161
54 554.440979 7.658243 838.222046 150.204178 23.759130 109.605339 1005.027161
[L_mouthFront]
52 551.629089 934.514771 339.150421 0.000081 2.804060 79.119301 1136.941284
53 551.629089 934.514771 339.150421 0.000081 2.804060 79.119301 1136.941284
54 551.629089 934.514771 339.150421 0.000081 2.804060 79.119301 1136.941284
[mouthGun]
52 55.332661 1627.420898 0.000000 0.000023 0.000009 -11.038128 1628.361328
53 55.332661 1627.420898 0.000000 0.000023 0.000009 -11.038128 1628.361328
54 55.332661 1627.420898 0.000000 0.000023 0.000009 -11.038128 1628.361328
[R_Mouth01]
52 554.442383 7.659197 -838.223938 29.795891 -23.759109 109.605331 1005.029541
53 554.442383 7.659197 -838.223938 29.795891 -23.759109 109.605331 1005.029541
54 554.442383 7.659197 -838.223938 29.795891 -23.759109 109.605331 1005.029541
[R_mouthFront]
52 551.629089 934.514282 -339.151367 0.000029 -2.803930 79.119133 1136.941162
53 551.629089 934.514282 -339.151367 0.000029 -2.803930 79.119133 1136.941162
54 551.629089 934.514282 -339.151367 0.000029 -2.803930 79.119133 1136.941162
[TopMouth]
52 461.269867 -56.106091 -0.008583 -0.000059 -0.000268 92.025169 464.669525
53 461.269867 -56.106091 -0.008583 -0.000059 -0.000268 92.025169 464.669525
54 461.269867 -56.106091 -0.008583 -0.000059 -0.000268 92.025169 464.669525
[weapon_bone]
52 -987.239868 1448.372803 0.001431 0.000000 89.965736 -31.038221 1752.833740
53 -987.239868 1448.372803 0.001431 0.000000 89.965736 -31.038221 1752.833740
54 -987.239868 1448.372803 0.001431 0.000000 89.965736 -31.038221 1752.833740
